<?xml version="1.0" encoding="utf-8"?>
<!-- Generator: Adobe Illustrator 15.1.0, SVG Export Plug-In . SVG Version: 6.00 Build 0)  -->
<!DOCTYPE svg PUBLIC "-//W3C//DTD SVG 1.0//EN" "http://www.w3.org/TR/2001/REC-SVG-20010904/DTD/svg10.dtd">
<svg version="1.0" id="Layer_1" xmlns="http://www.w3.org/2000/svg" xmlns:xlink="http://www.w3.org/1999/xlink" x="0px" y="0px"
	 width="529.131px" height="80px" viewBox="0 0 529.131 80" enable-background="new 0 0 529.131 80" xml:space="preserve">
<g>
	<path fill="#49129E" d="M65.603,37.84c0,8.276-7.186,14.99-16.041,14.99c-8.86,0-16.037-6.714-16.037-14.99
		c0-8.272,7.177-14.977,16.037-14.977C58.417,22.863,65.603,29.567,65.603,37.84 M95.217,16.474
		c-0.256-0.782-1.09-1.208-1.869-0.955l-17.056,5.543c-0.93,0.295-1.273,0.107-2.031-0.603c-5.888-5.999-14.769-9.814-24.699-9.814
		c-17.731,0-32.106,12.173-32.106,27.195c0,0.248,0.005,0.491,0.01,0.73c0,0.07,0.005,0.142,0.005,0.217
		c0.043,0.976-0.14,1.432-1.111,1.745L1.024,45.517c-0.779,0.25-1.205,1.087-0.951,1.867l3.844,11.828
		c0.254,0.785,1.09,1.211,1.869,0.958l17.062-5.543c0.966-0.311,1.257-0.167,1.928,0.496c5.728,5.868,14.738,9.921,24.788,9.921
		c17.74,0,32.11-12.178,32.11-27.204c0-0.32-0.004-0.644-0.022-0.97c-0.021-0.963,0.147-1.374,1.034-1.688l15.421-5.011
		c0.783-0.25,1.209-1.087,0.954-1.872L95.217,16.474z"/>
	<path fill="#49129E" d="M199.933,36.307v24.137c0,0.3-0.02,0.329-0.183,0.514c-3.515,3.868-12.453,7.038-23.162,7.038
		c-18.099,0-26.814-14.227-26.814-31.5c0-21.372,14.262-31.175,27.79-31.175c8.036,0,15.239,1.734,20.634,7.541
		c0.163,0.178,0.177,0.234,0.177,0.527V29.41c0,0.117-0.124,0.151-0.187,0.056c-4.207-5.645-9.654-9.002-17.072-9.002
		c-11.16,0-15.438,8.535-15.438,17.559c0,8.723,2.959,16.756,12.093,16.756c2.566,0,4.627-0.613,6.124-1.967
		c0.065-0.063,0.135-0.224,0.135-0.401v-6.213c0-5.924-1.542-9.184-1.938-9.909c-0.065-0.122-0.03-0.198,0.109-0.198h17.542
		C199.903,36.09,199.933,36.135,199.933,36.307"/>
	<path fill="#49129E" d="M294.986,14.906c-8.935,0-13.696,4.324-15.961,10.203c-3.786-7.136-12.735-10.203-25.292-10.203
		c-16.602,0-27.083,4.411-31.601,9.437h-0.16v-7.794c0-0.138-0.038-0.188-0.177-0.188h-14.787c-0.108,0-0.18,0.034-0.18,0.178
		v49.799c0,0.151,0.036,0.201,0.17,0.201h15.742c0.15,0,0.198-0.05,0.198-0.201v-8.836c0-14.636,4.386-21.479,10.685-27.103
		c4.182-3.732,11.367-6.806,17.741-6.806c12.372,0,14.206,5.843,14.206,14.327c0,14.408-5.984,18.571-11.437,18.571
		c-3.236,0-5.645-2.393-5.645-5.963s2.156-6.669,6.382-8.795c2.637-1.319,5.874-1.599,7.012-1.729
		c0.202-0.025,0.232-0.041,0.243-0.224c0.177-2.859-0.347-7.14-0.847-8.235c-0.051-0.117-0.094-0.143-0.263-0.132
		c-1.555,0.106-7.018,0.573-12.761,2.804c-8.984,3.505-15.748,11.035-15.748,20.271c0,8.328,6.317,13.5,15.991,13.5
		c9.473,0,14.723-4.001,17.002-6.536h0.069v18.333c0,0.162,0.056,0.214,0.239,0.214h15.05c0.162,0,0.208-0.056,0.208-0.208V42.095
		c0-6.111,1.963-13.258,8.881-13.258c6.517,0,7.894,7.003,7.894,13.121c0,7.648-2.757,13.023-8.066,13.023
		c-2.138,0-3.796-0.68-5.052-1.831c-0.079-0.081-0.152-0.052-0.152,0.065v9.854c0,0.172,0.038,0.294,0.162,0.417
		c2.623,2.596,6.269,4.502,9.961,4.502c7.577,0,18.004-6.247,18.004-29.202C312.699,26.606,307.371,14.906,294.986,14.906"/>
	<path fill="#49129E" d="M407.249,55.524v-9.119c0-0.127-0.071-0.08-0.109-0.021c-2.825,5.423-7.878,8.957-15.407,8.957
		c-9.345,0-15.881-6.578-15.881-17.771c0-8.622,3.552-18.445,16.119-18.445c7.125,0,12.637,4.797,14.952,9.677
		c0.053,0.11,0.167,0.115,0.167-0.058V17.152c0-0.183-0.038-0.284-0.157-0.426c-3.703-4.489-10.037-7.806-16.826-7.806
		c-16.545,0-24.227,10.686-24.227,27.529c0,14.925,7.924,27.554,24.227,27.554c9.54,0,15.015-4.427,17.067-8.109
		C407.219,55.809,407.249,55.712,407.249,55.524 M380.118,37.571c0,8.464,4.562,13.845,11.614,13.845
		c8.287,0,11.928-5.913,13.539-8.967c0.069-0.122,0.124-0.198,0.302-0.198h3.791c1.278,0,1.813,0.519,1.813,2.045v12.618
		c0,0.178-0.029,0.274-0.089,0.41c-1.398,2.892-6.705,10.925-20.982,10.925c-20.078,0-28.672-14.1-28.672-31.799
		c0-21.018,10.546-31.5,28.672-31.5c7.983,0,15.14,3.125,20.867,9.985c0.125,0.138,0.204,0.271,0.204,0.477v18.289
		c0,1.101-0.416,1.755-1.524,1.755h-3.395c-0.274,0-0.308-0.067-0.383-0.219c-0.083-0.162-1.517-2.9-1.517-2.9
		c-2.69-4.677-6.737-8.612-12.388-8.612C386.881,23.725,380.118,26.104,380.118,37.571"/>
	<path fill="#49129E" d="M430.325,8.119c0-3.417-1.813-4.225-5.615-4.225c-3.806,0-5.614,0.808-5.614,4.225
		c0,2.611,1.621,4.221,5.614,4.221C428.699,12.34,430.325,10.73,430.325,8.119 M434.874,7.916c0,2.379-1.189,8.344-10.164,8.344
		c-8.963,0-10.153-5.965-10.153-8.344C414.557,0,421.99,0,424.71,0C427.432,0,434.874,0,434.874,7.916"/>
	<path fill="#49129E" d="M509.169,20.2h-8.828c-0.197,0-0.296,0.061-0.37,0.279c-1.199,3.394-10.973,31.038-11.008,31.155
		c-0.054,0.146-0.183,0.137-0.218,0c-0.033-0.117-11.452-31.14-11.489-31.236c-0.057-0.158-0.166-0.198-0.311-0.198h-21.921
		c-0.145,0-0.188-0.08-0.178-0.229c0.039-1.703,0.287-12.415,0.287-12.541c0-0.138-0.036-0.219-0.213-0.219h-2.988
		c-0.119,0-0.19,0.041-0.233,0.162c-3.633,10.271-11.819,16.828-26.621,16.828c-1.542,0-3.999-0.225-4.995-0.691
		c-0.069-0.029-0.129-0.023-0.129,0.072v38.462c0,0.083,0.015,0.103,0.089,0.103h9.377c0.063,0,0.094-0.024,0.094-0.092V28.097
		c0-0.183,0.079-0.274,0.36-0.274c0.279,0,15.185-0.005,15.403-0.005s0.383,0.062,0.383,0.32c0,0.248-0.442,13.222-0.442,21.666
		c0,9.205,3.568,14.174,12.482,14.174c5.281,0,9.118-2.515,10.349-3.936c0.073-0.081,0.109-0.146,0.109-0.37v-7.124
		c0-0.106-0.081-0.086-0.119-0.025c-1.116,2.094-3.454,4.021-6.667,4.021c-5.108,0-7.065-3.313-7.065-9.226
		c0-6.366,0.375-12.801,0.375-19.237c0-0.212,0.165-0.264,0.317-0.264c0.135,0,15.253-0.02,15.456-0.02
		c0.149,0,0.243,0.029,0.305,0.197c0.067,0.192,12.065,33.051,13.155,36.05c0.054,0.142,0.041,0.253-0.005,0.376
		c-0.04,0.125-3.869,10.949-3.931,11.132c-0.063,0.178-0.083,0.228,0.129,0.228h9.416c0.193,0,0.274-0.071,0.322-0.209
		c0.035-0.104,19.471-54.828,19.549-55.052C509.476,20.287,509.346,20.2,509.169,20.2 M514.752,18.064
		c-0.259,0.879-20.283,57.137-21.863,61.539c-0.084,0.239-0.233,0.274-0.411,0.274h-18.207c-0.145,0-0.203-0.081-0.162-0.198
		c0.573-1.561,5.438-14.828,5.484-14.951c0.063-0.172,0.074-0.242,0.005-0.415c-1.136-3.16-10.724-29.462-11.839-32.125
		c-0.048-0.104-0.114-0.172-0.287-0.172h-8.35c-0.198,0-0.261,0.111-0.261,0.172c-0.056,2.835-0.3,14.82-0.3,14.82
		c0,4.65,1.463,5.467,3.334,5.467c1.791,0,3.286-1.754,4.015-3.92c0.04-0.102,0.124-0.142,0.258-0.142h4.083
		c1.037,0,1.806,0.512,1.806,1.805v11.077c0,0.202-0.01,0.295-0.114,0.421c-1.75,2.227-5.957,6.254-14.461,6.254
		c-11.005,0-16.531-5.306-16.531-17.908c0-5.884,0.336-16.341,0.274-17.796c-0.016-0.183-0.041-0.25-0.223-0.25h-7.083
		c-0.129,0-0.178,0-0.178,0.172v34.194c0,0.177-0.061,0.233-0.219,0.233h-17.593c-0.124,0-0.246,0-0.246-0.26V18.521
		c0-0.102,0.074-0.126,0.157-0.092c0.654,0.29,4.296,1.8,9.02,1.8c11.452,0,20.244-4.614,23.563-16.771
		c0.03-0.131,0.115-0.198,0.343-0.198h9.499c0.857,0,1.263,0.528,1.245,1.309c-0.015,0.751-0.185,8.845-0.258,11.594
		c-0.01,0.219,0.068,0.238,0.198,0.238h19.891c0.872,0,1.49,0.508,1.759,1.277c1.189,3.398,5.069,14.588,7.671,21.915
		c0.026,0.077,0.1,0.081,0.131,0c2.71-8.078,7.303-21.078,7.962-22.933c0.045-0.148,0.149-0.26,0.426-0.26h16.161
		C514.684,16.401,515.095,16.889,514.752,18.064"/>
	<path fill="#49129E" d="M356.475,50.843c-2.113,3.002-8.108,6.533-12.931,6.533c-8.938,0-13.13-5.396-13.13-16.438
		c0-12.036,3.284-15.271,7.655-15.271c4.113,0,5.475,2.668,5.475,8.439c0,4.975-2.852,8.529-7.037,8.529
		c-1.278,0-2.194-0.131-2.858-0.318c-0.104-0.026-0.15,0.034-0.15,0.142c0.115,2.733,0.733,5.979,1.621,7.598
		c0.078,0.141,0.165,0.192,0.312,0.242c0.809,0.225,2.264,0.487,4.262,0.487c4.529,0,18.593-1.567,18.593-18.557
		c0-9.617-4.295-17.324-19.964-17.324c-15.754,0-22.599,10.629-22.599,26.904c0,16.432,9.54,26.179,23.036,26.179
		c8.67,0,15.41-4.132,17.685-6.755c0.183-0.207,0.218-0.259,0.218-0.588v-9.733C356.662,50.762,356.542,50.751,356.475,50.843"/>
	<path fill="#49129E" d="M516.662,64.293c0.347,0.365,0.763,0.421,0.847-0.102c0.327-1.906,0.929-5.726,1.245-7.162
		c0.154-0.715,0.565-0.851,1.278-0.999c0.601-0.115,1.62-0.196,2.804-0.075c1.527,0.158,2.191,1.04,2.191,2.125
		c0,1.364-0.816,2.601-2.441,3.235c-0.305,0.117-0.305,0.183-0.19,0.406c0.525,1.061,1.447,2.262,2.072,2.835
		c0.569,0.517,1.021,0.279,1.343,0.011c1.253-1.046,1.844-2.611,1.844-4.361c0-3.425-2.086-6.087-6.24-6.087
		c-3.726,0-6.292,2.725-6.292,6.087C515.122,61.742,515.711,63.289,516.662,64.293 M513.71,60.206c0-4.189,3.185-7.446,7.719-7.446
		c4.912,0,7.702,3.257,7.702,7.446c0,2.52-1.248,4.813-2.965,5.902c-1.035,0.654-1.833,0.595-2.937-0.587
		c-0.716-0.767-2.128-2.689-2.673-3.917c-0.317-0.726-0.188-1.182,0.561-1.308c1.396-0.229,2.135-0.949,2.135-2.023
		c0-0.305-0.126-0.665-0.505-0.801c-0.416-0.148-1.511-0.148-2.076-0.042c-0.4,0.076-0.464,0.243-0.556,0.681
		c-0.292,1.278-1.144,6.391-1.351,7.571c-0.176,1.005-1.076,1.075-1.979,0.496C514.904,64.982,513.71,62.767,513.71,60.206"/>
</g>
</svg>
