<?xml version="1.0" encoding="iso-8859-1"?>
<!-- Generator: Adobe Illustrator 19.0.0, SVG Export Plug-In . SVG Version: 6.00 Build 0)  -->
<svg version="1.1" id="Layer_1" xmlns="http://www.w3.org/2000/svg" xmlns:xlink="http://www.w3.org/1999/xlink" x="0px" y="0px"
	 viewBox="0 0 299.01 299.01" style="enable-background:new 0 0 299.01 299.01;" xml:space="preserve">
<g>
	<g>
		<path d="M270.621,121.117c-13.166,0-24.265,9.011-27.461,21.188h-44.286c-1.218-8.388-4.523-16.108-9.38-22.607l31.322-31.322
			c10.7,6.279,24.937,5.028,34.404-4.439c11.093-11.095,11.095-29.051,0-40.147c-11.094-11.092-29.051-11.096-40.146,0
			c-9.469,9.468-10.719,23.705-4.441,34.404l-31.322,31.322c-6.5-4.858-14.22-8.162-22.607-9.38V55.849
			c12.178-3.196,21.188-14.294,21.188-27.461c0.002-15.653-12.733-28.388-28.387-28.388s-28.388,12.735-28.388,28.388
			c0,13.166,9.011,24.265,21.188,27.461v44.286c-8.388,1.218-16.108,4.523-22.607,9.38L88.376,78.193
			c6.279-10.7,5.028-24.937-4.439-34.404c-11.095-11.093-29.051-11.095-40.147,0c-11.092,11.094-11.096,29.051,0,40.146
			c9.468,9.469,23.705,10.719,34.404,4.44l31.322,31.322c-4.857,6.5-8.162,14.221-9.38,22.607H55.849
			c-3.196-12.178-14.294-21.188-27.461-21.188C12.735,121.117,0,133.852,0,149.505c0,15.653,12.735,28.388,28.388,28.388
			c13.166,0,24.265-9.011,27.461-21.188h44.286c1.218,8.388,4.523,16.108,9.38,22.607l-31.322,31.322
			c-18.706-10.979-42.717,2.444-42.717,24.514c0,15.693,12.696,28.387,28.387,28.387c22.068,0,35.492-24.011,24.514-42.718
			l31.322-31.322c6.5,4.858,14.221,8.162,22.607,9.38v44.286c-12.178,3.196-21.188,14.294-21.188,27.461
			c0,15.654,12.735,28.388,28.388,28.388s28.388-12.735,28.388-28.388c0-13.166-9.011-24.265-21.188-27.461v-44.286
			c8.388-1.218,16.108-4.523,22.607-9.38l31.322,31.322c-10.979,18.706,2.444,42.718,24.514,42.718
			c15.693,0,28.387-12.696,28.387-28.387c0-21.874-23.835-35.596-42.718-24.514l-31.322-31.322c4.858-6.5,8.162-14.22,9.38-22.607
			h44.286c3.196,12.178,14.294,21.188,27.461,21.188c15.654,0,28.388-12.735,28.388-28.388
			C299.01,133.852,286.275,121.117,270.621,121.117z M225.257,53.973c5.466-5.466,14.315-5.467,19.781,0
			c5.466,5.466,5.467,14.314,0,19.783c-4.956,4.956-13.327,5.957-19.781-0.001c-0.002-0.002-0.004-0.003-0.005-0.005
			C219.791,68.283,219.788,59.44,225.257,53.973z M73.759,73.749c-0.002,0.002-0.003,0.003-0.005,0.004
			c-0.002,0.002-0.003,0.004-0.005,0.005c-5.465,5.462-14.311,5.465-19.777-0.004c-5.466-5.466-5.467-14.315,0-19.782
			c5.466-5.466,14.314-5.467,19.783,0C79.219,59.436,79.223,68.279,73.759,73.749z M28.388,163.494
			c-7.713,0-13.988-6.276-13.988-13.988c0-7.713,6.276-13.988,13.988-13.988s13.988,6.276,13.988,13.988
			C42.377,157.219,36.101,163.494,28.388,163.494z M63.862,249.136c-7.731,0-13.987-6.256-13.987-13.987
			c0-7.732,6.256-13.988,13.987-13.988c7.722,0,13.988,6.262,13.988,13.988C77.851,242.879,71.594,249.136,63.862,249.136z
			 M135.516,28.389c0-7.713,6.276-13.988,13.988-13.988s13.988,6.276,13.988,13.988c0,7.713-6.276,13.988-13.988,13.988
			C141.792,42.378,135.516,36.101,135.516,28.389z M163.494,270.622c0,7.713-6.276,13.988-13.988,13.988
			s-13.988-6.276-13.988-13.988c0-7.713,6.276-13.988,13.988-13.988S163.494,262.909,163.494,270.622z M149.505,185.002
			c-19.573,0-35.497-15.924-35.497-35.497s15.924-35.497,35.497-35.497s35.497,15.924,35.497,35.497
			S169.078,185.002,149.505,185.002z M235.148,221.16c7.73,0,13.987,6.257,13.987,13.988c0,7.731-6.256,13.987-13.987,13.987
			c-7.732,0-13.988-6.256-13.988-13.987C221.16,227.425,227.422,221.16,235.148,221.16z M270.621,163.494
			c-7.713,0-13.988-6.276-13.988-13.988c0-7.713,6.276-13.988,13.988-13.988c7.713,0,13.988,6.276,13.988,13.988
			C284.61,157.219,278.335,163.494,270.621,163.494z"/>
	</g>
</g>
<g>
</g>
<g>
</g>
<g>
</g>
<g>
</g>
<g>
</g>
<g>
</g>
<g>
</g>
<g>
</g>
<g>
</g>
<g>
</g>
<g>
</g>
<g>
</g>
<g>
</g>
<g>
</g>
<g>
</g>
</svg>
